<?xml version="1.0" standalone="no"?>
<!DOCTYPE svg PUBLIC "-//W3C//DTD SVG 1.1//EN" "http://www.w3.org/Graphics/SVG/1.1/DTD/svg11.dtd" >
<!--
2013-9-30: Created.
-->
<svg>
<metadata>
Created by iconfont
</metadata>
<defs>

<font id="iconfont" horiz-adv-x="1024" >
  <font-face
    font-family="iconfont"
    font-weight="500"
    font-stretch="normal"
    units-per-em="1024"
    ascent="896"
    descent="-128"
  />
    <missing-glyph />
    
    <glyph glyph-name="success" unicode="&#58926;" d="M512 896a512 512 0 1 0 0-1024A512 512 0 0 0 512 896z m245.568-256a71.04 71.04 0 0 1-52.608-24.064l-280.64-310.08-105.28 116.288a71.04 71.04 0 0 1-52.608 24.064 71.04 71.04 0 0 1-52.608-24.064C199.872 406.72 192 385.792 192 363.96799999999996c0-21.76 7.872-42.688 21.76-58.112l140.352-154.944c19.072-21.12 46.72-23.04 63.552-23.04 16.768 0 57.728 1.92 76.8 23.04l315.712 348.8C824.128 515.072 832 536 832 557.76c0 21.824-7.872 42.752-21.76 58.176A71.04 71.04 0 0 1 757.504 640z"  horiz-adv-x="1024" />

    
    <glyph glyph-name="logo" unicode="&#58927;" d="M512 680.96l-194.56-337.92-225.28 215.04 80.896-515.584h682.496L942.08 558.0799999999999l-245.76-215.04zM813.056-42.49599999999998H215.552c-26.112 0.512-34.816-3.584-42.496 0-1.024-16.896-1.024-25.6 0-42.496 8.192 3.584 16.384-0.512 42.496 0h597.504c26.624-0.512 34.816 3.584 42.496 0 1.024 17.408 1.024 25.6 0 42.496-7.68-4.096-16.384 0-42.496 0zM512 793.6m-66.56 0a66.56 66.56 0 1 1 133.12 0 66.56 66.56 0 1 1-133.12 0ZM66.56 660.48m-66.56 0a66.56 66.56 0 1 1 133.12 0 66.56 66.56 0 1 1-133.12 0ZM957.44 660.48m-66.56 0a66.56 66.56 0 1 1 133.12 0 66.56 66.56 0 1 1-133.12 0Z"  horiz-adv-x="1024" />

    
    <glyph glyph-name="dretract" unicode="&#58928;" d="M151.083 170.66700000000003h721.792a64.896 64.896 0 0 0 65.792-64 64.896 64.896 0 0 0-65.792-64H151.083c-35.84-0.427-65.238 28.16-65.75 64a64.896 64.896 0 0 0 65.75 64z m0 597.333h721.792a64.896 64.896 0 0 0 65.792-64 64.896 64.896 0 0 0-65.792-64H151.083c-35.84-0.47-65.28 28.16-65.75 64a64.896 64.896 0 0 0 65.75 64z m787.584-243.328v-232.49a36.95 36.95 0 0 0-21.504-31.915 43.093 43.093 0 0 0-40.704 1.749L704.256 363.563a41.643 41.643 0 0 0-21.59 35.285 41.43 41.43 0 0 0 20.48 35.797l183.297 114.56a35.627 35.627 0 0 0 34.048 2.134c10.88-5.12 17.92-15.36 18.176-26.667z m-784.939-55.339h332.501c17.92 0.214 35.158-6.4 48-18.346 12.843-12.032 20.182-28.459 20.438-45.654a63.701 63.701 0 0 0-20.438-45.653c-12.8-11.947-30.122-18.56-48-18.347H153.728c-37.248-0.469-67.883 28.16-68.395 64 0.512 35.84 31.147 64.47 68.395 64z"  horiz-adv-x="1024" />

    
    <glyph glyph-name="dspread" unicode="&#58929;" d="M872.917 170.66700000000003H151.125a64.896 64.896 0 0 1-65.792-64 64.896 64.896 0 0 1 65.792-64h721.792c35.84-0.427 65.238 28.16 65.75 64a64.896 64.896 0 0 1-65.75 64z m0 597.333H151.125a64.896 64.896 0 0 1-65.792-64 64.896 64.896 0 0 1 65.792-64h721.792c35.84-0.47 65.28 28.16 65.75 64a64.896 64.896 0 0 1-65.75 64zM85.333 524.672v-232.49a36.95 36.95 0 0 1 21.504-31.915c12.886-6.272 28.459-5.59 40.704 1.749l172.203 101.547c13.227 7.594 21.333 20.906 21.59 35.285a41.43 41.43 0 0 1-20.48 35.797l-183.297 114.56a35.627 35.627 0 0 1-34.048 2.134 30.635 30.635 0 0 1-18.176-26.667z m784.939-55.339H537.771c-17.92 0.214-35.158-6.4-48-18.346-12.843-12.032-20.182-28.459-20.438-45.654 0.256-17.194 7.595-33.621 20.438-45.653 12.8-11.947 30.122-18.56 48-18.347h332.501c37.248-0.469 67.883 28.16 68.395 64-0.512 35.84-31.147 64.47-68.395 64z"  horiz-adv-x="1024" />

    
    <glyph glyph-name="close" unicode="&#58930;" d="M256 704l576-576-64-64-576 576 64 64z m576-64L256 64l-64 64 576 576 64-64z"  horiz-adv-x="1024" />

    
    <glyph glyph-name="user" unicode="&#58931;" d="M237.43 381.99300000000005a287.987 287.987 0 1 0 357.104 0c61.949-10.24 120.954-56.957 173.432-126.01 38.014-51.646 63.87-128.89 63.997-191.992v-63.997c-0.32-40.574-4.16-48.958 0-63.997-17.087 2.88-25.599-0.32-63.997 0-500.586 1.92-756.575 1.92-767.966 0 4.16 14.975 0.32 23.423 0 63.997v63.997c0.192 63.102 25.983 140.346 63.997 191.992C116.475 325.1 175.48 371.69000000000005 237.43 381.99300000000005z m530.536 31.103c-45.822 28.415-8.96 53.566 0 69.757 117.307 158.2-36.862 331.697-63.997 349.104 105.595 0 191.991-103.675 191.991-184.311 0-80.637-25.15-133.434-63.997-164.793 122.939-68.541 190.328-185.848 191.992-349.04-0.32-44.095-4.032-53.31 0-69.822-16.64 3.2-24.96-0.32-63.998 0H895.96c16.96 49.854 52.798 257.845-127.994 349.105z"  horiz-adv-x="1024" />

    
    <glyph glyph-name="retractz" unicode="&#58932;" d="M662.175447-128a48.932422 48.932422 0 0 1 44.325814 33.065214 58.555116 58.555116 0 0 1-10.236909 59.066962L321.593503 380.77435 701.997021 803.558669a58.248009 58.248009 0 0 1 0 76.367337A45.144766 45.144766 0 0 1 634.842901 882.075757l-1.945012-2.149751-414.9019-460.66088a58.350378 58.350378 0 0 1 0-76.367337l409.476338-454.928212a46.782672 46.782672 0 0 1 34.70312-15.969577z"  horiz-adv-x="1024" />

    
    <glyph glyph-name="excel" unicode="&#58933;" d="M832 834.56C866.112 800 891.264 745.472 891.264 704h-89.792c-18.88 0-60.16 2.56-97.472 0V896c34.304-4.288 93.888-26.88 128-61.44zM640 640h256v-640c0-12.608-24.704-68.608-46.784-91.264-22.08-22.72-80-36.736-81.216-36.736H256c-19.84 8.32-58.432 12.736-81.408 36.736C162.752-78.976 128-1.919999999999959 128 0V768c0 1.344 14.464 44.416 46.592 77.888C202.88 875.52 248.832 896 256 896h384v-256z m128.64-448c0 64-45.696 64-64 64h-384c-9.28 0-64.64 0-64.64-64s55.744-64 64.64-64h384c18.304 0 64 0 64 64zM704 512H320c-18.304 0-64 0-64-64s46.912-64 64-64h384c17.6 0 64 0 64 64s-45.696 64-64 64z"  horiz-adv-x="1024" />

    
    <glyph glyph-name="zspread" unicode="&#58934;" d="M361.824553-128a48.932422 48.932422 0 0 0-44.325814 33.065214 58.555116 58.555116 0 0 0 10.236909 59.066962l374.670849 416.642174L322.002979 803.558669a58.248009 58.248009 0 0 0 0 76.367337A45.144766 45.144766 0 0 0 389.157099 882.075757l1.535536-2.149751 414.901899-460.66088a58.350378 58.350378 0 0 0 0-76.367337l-409.476338-454.928212a46.782672 46.782672 0 0 0-34.293643-15.969577z"  horiz-adv-x="1024" />

    
    <glyph glyph-name="logoz" unicode="&#58935;" d="M245.639529 414.72c6.023529 6.023529 10.601412 12.528941 16.384 19.335529A856.545882 856.545882 0 0 1 379.482353 355.93035299999997a1956.020706 1956.020706 0 0 0-335.510588-85.835294v-98.304A1747.727059 1747.727059 0 0 1 499.952941 296.17694100000006a1790.915765 1790.915765 0 0 1 456.041412-124.385882v98.304A1865.607529 1865.607529 0 0 0 624.579765 359.905882a884.133647 884.133647 0 0 1 197.632 158.960942 46.742588 46.742588 0 0 1 17.347764 43.369411 39.755294 39.755294 0 0 1-40.478117 26.021647H358.460235c9.637647 20.239059 19.275294 42.164706 30.117647 66.258824H238.893176A808.297412 808.297412 0 0 0 85.594353 414.72h160.045176z m-81.01647-423.213176a65.054118 65.054118 0 0 1 64.63247-63.608471h542.117647a65.054118 65.054118 0 0 1 64.632471 63.608471V131.01176499999997a64.391529 64.391529 0 0 1-64.993882 63.909647h-542.117647A64.391529 64.391529 0 0 1 164.623059 131.01176499999997v-139.806118z m30.117647 602.352941v56.139294a36.623059 36.623059 0 0 0 36.623059 36.623059h537.961411a36.623059 36.623059 0 0 0 36.623059-36.623059v-55.898353h146.552471V677.9482350000001a63.548235 63.548235 0 0 1-63.668706 63.608471H573.44V837.089882H426.887529v-95.472941H111.616A63.006118 63.006118 0 0 1 48.188235 677.9482350000001v-83.847529h146.371765z m494.592-574.644706a36.623059 36.623059 0 0 0-36.623059-36.623059H347.858824a36.623059 36.623059 0 0 0-36.623059 36.623059V103.30352900000003a36.623059 36.623059 0 0 0 36.623059 36.623059h304.670117a36.623059 36.623059 0 0 0 36.623059-36.623059v-83.847529zM644.517647 536.2748240000001a10.420706 10.420706 0 0 0 9.637647-7.710118 9.697882 9.697882 0 0 0-6.023529-9.637647 689.754353 689.754353 0 0 0-144.564706-106.074353 784.323765 784.323765 0 0 0-174.682353 119.567059 7.348706 7.348706 0 0 0 2.409412 3.855059h313.223529z m428.694588-348.03953a534.407529 534.407529 0 0 0-58.849882-264.192h148.781176a513.144471 513.144471 0 0 1 56.862118 264.192V381.952h628.675765a62.945882 62.945882 0 0 1 63.60847 63.608471V664.4555290000001a62.945882 62.945882 0 0 1-63.60847 63.608471h-271.058824V837.993412H1431.190588v-109.869177h-293.165176a63.789176 63.789176 0 0 1-64.572236-63.60847v-476.280471z m692.525177 285.334588a36.623059 36.623059 0 0 0-36.623059-36.623058h-509.108706V636.506353a36.623059 36.623059 0 0 0 36.623059 36.623059h472.425412a36.623059 36.623059 0 0 0 36.623058-36.623059v-162.936471z m476.882823 16.384h129.204706L2250.330353 131.01176499999997a57.886118 57.886118 0 0 1 6.686118-50.115765 56.259765 56.259765 0 0 1 45.296941-22.166588h520.613647a51.862588 51.862588 0 0 1 44.333176 22.166588 55.055059 55.055059 0 0 1 7.710118 50.115765L2793.110588 369.42305899999997h-146.55247l78.305882-232.387765a14.757647 14.757647 0 0 0-1.927529-16.384 19.215059 19.215059 0 0 0-15.420236-6.746353h-281.72047a17.648941 17.648941 0 0 0-17.347765 23.130353l116.675765 352.858353h356.713411v54.211765H2242.620235v-54.211765z m-58.849882 54.211765A63.789176 63.789176 0 0 1 2120.282353 608.557176h-148.660706v-54.934588h28.973177a37.285647 37.285647 0 0 0 36.623058-36.623059v-390.505411a367.435294 367.435294 0 0 0-60.777411-200.282353h159.081411a291.418353 291.418353 0 0 1 35.71953 78.305882 188.596706 188.596706 0 0 1 173.537882-77.101176h538.985412v54.452705h-532.239059a158.418824 158.418824 0 0 0-167.755294 115.712V543.9849409999999z m89.690353 197.632h578.258823v54.211765h-578.258823v-54.211765zM2168.470588 664.4555290000001L2122.089412 836.065882h-150.588236l46.381177-171.610353H2168.470588z m1672.312471-245.820235V542.057412A63.548235 63.548235 0 0 1 3778.078118 606.870588H3004.837647a64.391529 64.391529 0 0 1-63.668706-64.572235v-123.663059h75.233883v-116.675765a63.789176 63.789176 0 0 1 64.572235-63.60847h620.965647a63.789176 63.789176 0 0 1 64.572235 63.60847V418.635294h74.209883z m-807.996235-228.532706a64.572235 64.572235 0 0 1-64.572236-64.572235v-132.096a64.391529 64.391529 0 0 1 64.572236-63.608471h717.342117a64.391529 64.391529 0 0 1 64.632471 63.608471v132.035765a64.572235 64.572235 0 0 1-64.632471 64.572235H3032.786824z m-97.340236 523.565177h154.262588v-68.48753h146.552471V713.667765h310.392471v-68.48753h146.55247V713.667765h154.262588v54.934588h-154.202352V837.993412H3546.654118v-69.391059h-310.392471V837.993412h-146.552471v-69.391059h-154.262588v-54.934588zM3668.329412 21.383528999999953a36.623059 36.623059 0 0 0-36.623059-36.623058h-480.316235a36.141176 36.141176 0 0 0-36.623059 36.623058v77.101177a36.623059 36.623059 0 0 0 36.623059 36.623059h480.135529a37.225412 37.225412 0 0 0 36.623059-36.623059v-77.101177z m-48.188236 308.404706a37.285647 37.285647 0 0 0-36.623058-36.623059H3198.494118a37.285647 37.285647 0 0 0-36.502589 36.623059V392.553412a37.948235 37.948235 0 0 0 36.502589 36.683294h384.722823a37.948235 37.948235 0 0 0 36.623059-36.623059V329.788235z m-532.359529 185.22353a36.623059 36.623059 0 0 0 36.623059 36.623059h534.166588a36.623059 36.623059 0 0 0 36.623059-36.623059v-30.840471H3087.781647v30.840471z m1551.841882-52.043294V371.350588a36.623059 36.623059 0 0 0-36.623058-36.623059h-305.633883l298.88753 335.570824h-170.646589l-120.470588-134.023529h-177.453176l181.308235 210.160941h345.148235c81.980235 0 124.385882 27.949176 138.842353 91.617882h-169.682823c-19.275294-33.731765-48.188235-37.586824-103.183059-37.586823h-600.666353v-54.211765H4144.188235L3982.095059 558.6823529999999a46.260706 46.260706 0 0 1 34.695529-76.197647h239.134118l-132.096-147.757177h-206.305882v-54.934588h364.483764v-262.26447a36.623059 36.623059 0 0 0-36.623059-36.623059h-65.596235v-54.693647h184.139294a64.451765 64.451765 0 0 1 64.632471 63.60847V279.79294100000004H4722.447059a63.006118 63.006118 0 0 1 63.668706 63.608471V462.968471h-146.492236zM4044.8-74.99294099999997a1875.184941 1875.184941 0 0 1 98.364235 303.706353h-146.612706a1596.235294 1596.235294 0 0 0-98.304-303.706353h146.552471z m767.457882 0a1596.235294 1596.235294 0 0 0-98.304 303.706353h-146.612706a1871.631059 1871.631059 0 0 1 98.364236-303.706353h146.55247zM5533.997176 692.464941h242.025412v54.934588h-198.77647V841.788235h-144.564706v-94.388706h-200.463059v-54.934588h139.806118L5238.061176 368.459294a37.406118 37.406118 0 0 1 2.831059-33.731765 35.478588 35.478588 0 0 1 31.864471-16.384h58.066823a1418.782118 1418.782118 0 0 0-98.304-393.33647h157.153883a1551.480471 1551.480471 0 0 1 84.871529 393.33647h54.934588v-328.764235a62.825412 62.825412 0 0 1 61.741177-64.572235h185.103059v54.934588H5708.498824a36.623059 36.623059 0 0 0-35.659295 37.586824V318.343529h64.572236a32.286118 32.286118 0 0 1 30.117647 16.384 34.635294 34.635294 0 0 1 2.891294 33.731765l-63.849412 157.214118H5547.670588l52.10353-128.240941a16.624941 16.624941 0 0 0-0.963765-16.384 17.588706 17.588706 0 0 0-15.420235-7.710118h-154.443294a16.022588 16.022588 0 0 0-14.456471 7.710118 14.757647 14.757647 0 0 0-1.927529 16.384z m-457.788235-589.101176a7.288471 7.288471 0 0 0-6.746353 3.855059 9.396706 9.396706 0 0 0-0.963764 8.673882 2765.101176 2765.101176 0 0 1 157.153882 501.338353h-137.09553c-13.492706-55.898353-28.912941-113.784471-48.188235-171.610353h-13.492706a11.023059 11.023059 0 0 0-7.710117 2.891294 7.348706 7.348706 0 0 0-0.963765 7.770353A2483.019294 2483.019294 0 0 1 5110.784 841.788235h-144.564706a2408.568471 2408.568471 0 0 0-102.4-416.527059 24.094118 24.094118 0 0 1 4.818824-24.094117 21.805176 21.805176 0 0 1 20.239058-10.601412h133.059765a3003.873882 3003.873882 0 0 0-127.277176-305.633882 24.094118 24.094118 0 0 1 3.855059-24.094118 24.636235 24.636235 0 0 1 22.166588-12.528941h269.974588v54.994823h-114.447059z m123.361883-157.153883v54.934589l-331.65553-19.275295v-54.934588z"  horiz-adv-x="5782" />

    
    <glyph glyph-name="retract" unicode="&#58936;" d="M512 448l256-256 64 64-256 256-64 64-320-320 64-64 256 256z"  horiz-adv-x="1024" />

    
    <glyph glyph-name="spread" unicode="&#58937;" d="M512 320l256 256 64-64-256-256-64-64-320 320 64 64 256-256z"  horiz-adv-x="1024" />

    
    <glyph glyph-name="price" unicode="&#58938;" d="M64 128h128v-192H64V128z m256 192h128v-384H320V320z m256-128h128v-256H576V192z m256 256h128v-512H832V448zM0 327.10400000000004l387.648 469.76L644.8 588.672l203.584 230.08L767.424 896H1024v-284.416l-71.68 75.008L644.736 384 387.648 640 56.896 256 0 327.10400000000004z"  horiz-adv-x="1024" />

    
    <glyph glyph-name="add" unicode="&#58939;" d="M874.03624 746.03624a511.880668 511.880668 0 1 1 0-723.863249 511.880668 511.880668 0 0 1 0 723.863249z m-314.998566-625.454191a46.901066 46.901066 0 0 0-93.802132 0V337.171557H248.582049a46.901066 46.901066 0 0 0 0 93.866117H465.171557V647.563197a46.901066 46.901066 0 1 0 93.802132 0v-216.525523h216.589508a46.901066 46.901066 0 0 0 0-93.866117H559.037674v-216.589508z"  horiz-adv-x="1024" />

    
    <glyph glyph-name="delete" unicode="&#58940;" d="M640-128A640 640 0 0 0 0 512V896h1024v-1024h-384z m182.72 777.408A30.592 30.592 0 0 1 832 672a31.232 31.232 0 0 1-9.152 22.912 32.896 32.896 0 0 1-45.632 0L576 493.376 374.72 694.784a32.896 32.896 0 0 1-45.632 0 32.832 32.832 0 0 1 0-45.504L530.752 448l-201.536-201.216a32 32 0 0 1 45.504-45.44L576 402.816l201.28-201.472A30.976 30.976 0 0 1 800 192a32 32 0 0 1 22.72 54.784L621.184 448z"  horiz-adv-x="1024" />

    
    <glyph glyph-name="idelete" unicode="&#58941;" d="M512 0a384 384 0 1 1 0 768 384 384 0 0 1 0-768z m192 256l-64-64-128 128-128-128-64 64 128 128-128 128 64 64 128-128 128 128 64-64-128-128 128-128z"  horiz-adv-x="1024" />

    
    <glyph glyph-name="search" unicode="&#58942;" d="M1004.416-108.41600000000005a62.272 62.272 0 0 0-90.048 0l-199.36 198.976a448 448 0 0 0-572.416 25.6 454.4 454.4 0 0 0-19.2 641.792 451.008 451.008 0 0 0 643.136 6.4 441.216 441.216 0 0 0 38.4-584.064l199.36-198.976a61.952 61.952 0 0 0 0-89.6zM702.144 636.0319999999999a319.104 319.104 0 0 1-520.96 0 317.184 317.184 0 0 1 0-378.688 319.104 319.104 0 0 1 520.96 0 317.12 317.12 0 0 1 0 378.688z m0 0"  horiz-adv-x="1024" />

    
    <glyph glyph-name="tdelete" unicode="&#58943;" d="M704 832L640 896H384l-64-64H64v-128h896V832H704zM128 53.120000000000005V640h768v-586.88c0-83.072-85.568-181.12-192-181.12H320c-87.232 0-192 83.392-192 181.12zM640 512a64 64 0 0 1-64-64v-320a64 64 0 0 1 128 0V448a64 64 0 0 1-64 64z m-256 0a64 64 0 0 1-64-64v-320a64 64 0 0 1 128 0V448a64 64 0 0 1-64 64z"  horiz-adv-x="1024" />

    
    <glyph glyph-name="activity" unicode="&#58946;" d="M511.996115 788.468632c-6.591969-14.079933-24.319884-23.551888-63.999695-23.551887h-63.998695c-65.919686 0-65.919686 39.039814-63.999695 63.999695 4.544978 35.263832 14.847929 79.166623 63.999695 63.999695 23.551888-28.735863 88.830577-65.727687 127.99939-63.999695 39.229813-1.727992 104.381503 35.263832 127.99739 63.999695 49.151766 15.166928 59.455717-28.735863 63.999695-63.999695 1.919991-24.959881 1.919991-63.999695-63.999695-63.999695h-63.999695c-39.678811 0-57.406726 9.535955-63.998695 23.615887zM0.002555 636.982354c0 48.639768 11.327946 63.999695 63.999695 63.999695h383.99517v-191.998085H64.00225c-51.071757 0-64.063695 17.407917-63.999695 63.999695v63.999695z m63.999695-575.992255c-0.319998 69.759668 0.255999 319.995475 0 319.995475h383.99517v-447.993865H192.00064c-82.175608 0-127.294393 43.902791-127.99939 127.99839z m959.987425 575.992255c-0.127999-18.303913-0.191999-46.14278 0-63.999695 0-48.062771-13.119937-63.998695-63.999695-63.998695H575.99681V700.982049h383.99517c48.510769 0 63.999695-19.391908 63.999695-63.999695zM575.99581-67.00829099999999V380.98557400000004h383.99517c-0.383998 0 0.383998-245.948828 0-319.995475-0.767996-79.80762-45.183785-127.99939-127.99939-127.99939H575.99681z"  horiz-adv-x="1024" />

    
    <glyph glyph-name="forward" unicode="&#58966;" d="M938.24 149.37599999999998a71.936 71.936 0 0 1 0 103.04L564.544 618.688a75.456 75.456 0 0 1-105.088 0L85.76 252.41600000000005a71.808 71.808 0 0 1 0-103.04 75.328 75.328 0 0 1 105.088 0L512 464.128l321.152-314.752a75.392 75.392 0 0 1 105.088 0z"  horiz-adv-x="1024" />

    
    <glyph glyph-name="top" unicode="&#58967;" d="M938.24 21.375999999999976a71.936 71.936 0 0 1 0 103.04L564.544 490.688a75.456 75.456 0 0 1-105.088 0L85.76 124.41600000000005a71.808 71.808 0 0 1 0-103.04 75.328 75.328 0 0 1 105.088 0L512 336.12800000000004l321.152-314.752a75.392 75.392 0 0 1 105.088 0zM128 768h768q64 0 64-64t-64-64H128q-64 0-64 64t64 64z"  horiz-adv-x="1024" />

    
    <glyph glyph-name="bottom" unicode="&#58968;" d="M938.24 746.624a71.936 71.936 0 0 0 0-103.04L564.544 277.312a75.456 75.456 0 0 0-105.088 0L85.76 643.5840000000001a71.808 71.808 0 0 0 0 103.04 75.328 75.328 0 0 0 105.088 0L512 431.872l321.152 314.752a75.392 75.392 0 0 0 105.088 0zM128 128h768q64 0 64-64t-64-64H128q-64 0-64 64t64 64z"  horiz-adv-x="1024" />

    
    <glyph glyph-name="down" unicode="&#58969;" d="M938.24 618.624a71.936 71.936 0 0 0 0-103.04L564.544 149.312a75.456 75.456 0 0 0-105.088 0L85.76 515.5840000000001a71.808 71.808 0 0 0 0 103.04 75.328 75.328 0 0 0 105.088 0L512 303.87199999999996l321.152 314.752a75.392 75.392 0 0 0 105.088 0z"  horiz-adv-x="1024" />

    
    <glyph glyph-name="link" unicode="&#58970;" d="M544.338 55.360000000000014l-45.295 6.59s-30.197 6.589-45.295 13.178a28.021 28.021 0 0 1-25.91-6.589l-10.748-10.94c-62.568-63.656-163.97-70.245-228.649-13.179-73.38 63.592-75.491 177.724-8.637 245.73L343.71 456.936c21.56 21.944 47.47 35.123 73.38 43.887a166.976 166.976 0 0 0 103.513-6.59c19.448-8.764 38.833-19.768 56.106-37.297 8.637-8.765 15.099-17.53 21.56-28.533 8.637-15.354 28.021-17.53 38.833-4.414l60.393 61.416c8.637 8.829 8.637 22.008 2.176 32.948a233.703 233.703 0 0 1-30.197 35.186 241.636 241.636 0 0 1-51.82 41.585 272.728 272.728 0 0 1-101.338 39.536 303.82 303.82 0 0 1-200.627-30.708 299.406 299.406 0 0 1-66.855-50.477L91.326 393.28C-22.998 276.972-31.635 88.30700000000002 78.403-30.239000000000033c114.324-127.248 308.49-129.423 427.101-8.701l53.932 54.827c15.098 10.94 4.35 37.298-15.098 39.473zM929.727 816.734C811.372 928.692 626.29 919.991 514.397 803.5550000000001l-49.517-48.301c-15.034-15.355-4.286-41.713 15.098-43.952 30.069-2.175 60.201-8.764 90.334-17.529 8.636-2.24 19.384 0 25.846 6.59l10.748 10.94c62.44 63.719 163.586 70.309 228.137 13.178 73.124-63.655 75.3-177.852 8.573-245.922L680.094 311.582c-21.56-21.943-47.342-35.122-73.188-43.887a166.017 166.017 0 0 0-103.257 6.59 178.748 178.748 0 0 0-55.979 37.361 140.746 140.746 0 0 0-21.495 28.534c-8.637 15.354-27.958 17.529-38.77 4.35l-60.2-61.417c-8.637-8.828-8.637-22.007-2.176-33.011 8.573-13.18 19.385-24.119 30.069-35.123 15.098-15.354 34.483-30.708 51.692-41.712a276.375 276.375 0 0 1 98.97-39.537 302.157 302.157 0 0 1 200.116 30.708c23.671 13.243 47.342 30.773 66.727 50.541l163.522 166.977c120.53 120.722 116.243 318.406-6.398 434.778z"  horiz-adv-x="1024" />

    
    <glyph glyph-name="copy" unicode="&#58971;" d="M636.096 704c20.48 0 38.656-4.48 54.72-13.248 16-8.896 29.824-19.776 41.408-32.64 11.52-12.992 20.48-26.88 26.56-41.92 6.144-14.976 9.216-28.224 9.216-39.808v-576.768c0-19.776-3.904-37.44-11.776-53.12a127.168 127.168 0 0 0-30.72-39.808c-12.544-10.88-26.688-19.392-42.368-25.472-15.68-6.144-31.36-9.216-47.04-9.216H131.84c-12.928 0-27.072 3.712-42.432 11.2a179.328 179.328 0 0 0-42.944 29.632 167.808 167.808 0 0 0-33.28 42.368A99.072 99.072 0 0 0 0 3.711999999999989V572.288c0 14.336 3.392 29.12 10.24 44.416 6.784 15.36 15.68 29.44 26.56 42.368 10.88 12.928 23.552 23.68 37.824 32.192C88.96 699.7760000000001 104 704 119.68 704h516.416z m-60.48-640a62.784 62.784 0 0 1 45.44 18.432A60.544 60.544 0 0 1 640 127.48800000000006a62.208 62.208 0 0 1-18.88 45.568A61.952 61.952 0 0 1 575.616 192H192.384a61.952 61.952 0 0 1-45.44-18.944A62.208 62.208 0 0 1 128 127.48800000000006c0-17.728 6.272-32.768 18.88-45.056A62.784 62.784 0 0 1 192.384 64h383.232z m0 256a62.784 62.784 0 0 1 45.44 18.432A60.544 60.544 0 0 1 640 383.48800000000006a62.208 62.208 0 0 1-18.88 45.568A61.952 61.952 0 0 1 575.616 448H192.384a61.952 61.952 0 0 1-45.44-18.944A62.208 62.208 0 0 1 128 383.48800000000006c0-17.728 6.272-32.768 18.88-45.056A62.784 62.784 0 0 1 192.384 320h383.232zM756.992 896c29.376 0 56.32-8.704 80.96-26.112 24.64-17.344 46.016-38.848 64.128-64.384 18.112-25.6 32.256-53.184 42.56-82.88 10.24-29.632 15.36-56.768 15.36-81.28v-543.168c0-14.272-4.288-27.456-12.8-39.36a127.232 127.232 0 0 0-31.296-30.72c-12.288-8.512-25.6-15.36-40-20.48a119.68 119.68 0 0 0-40-7.616h-4.096V610.624c-5.44 47.04-20.16 83.2-44.096 108.416-23.872 25.216-55.68 41.6-95.36 49.088H192a17.536 17.536 0 0 1 1.024 7.168c0 13.632 4.096 27.648 12.288 41.92 8.192 14.336 19.008 27.328 32.32 38.912a184.965 184.965 0 0 0 44.608 28.608C298.624 892.224 315.072 896 331.456 896h425.536z"  horiz-adv-x="1024" />

    
    <glyph glyph-name="rule" unicode="&#58972;" d="M845.906 896c97.962 0 178.09-68.266 178.09-151.722v-570.75c0-41.727-17.792-79.658-51.2-108.117L796.925-84.34799999999996a202.367 202.367 0 0 0-126.89-43.648H178.09C80.128-127.99599999999998 0-59.72900000000004 0 23.726V744.278C0 827.734 80.128 896 178.09 896h667.816zM742.994-28.58299999999997l153.002 156.586h-92.16c-43.178 0-78.506-36.138-78.506-80.298v-90.368c5.888 4.01 11.776 8.022 17.664 14.08zM267.647 554.668h488.702c29.866 0 54.314 19.2 54.314 42.667S786.215 640 756.35 640H267.647c-29.867 0-54.315-19.2-54.315-42.666s24.448-42.667 54.315-42.667zM533.33 256.00300000000004H277.332c-35.2 0-64-19.2-64-42.667s28.8-42.666 64-42.666h256c35.199 0 63.999 19.2 63.999 42.666s-28.8 42.667-64 42.667z m-265.684 85.333h488.702c29.866 0 54.314 19.2 54.314 42.666s-24.448 42.667-54.314 42.667H267.647c-29.867 0-54.315-19.2-54.315-42.667s24.448-42.666 54.315-42.666z"  horiz-adv-x="1024" />

    
    <glyph glyph-name="script" unicode="&#58973;" d="M170.667 896h682.666A170.667 170.667 0 0 0 1024 725.333v-682.666A170.667 170.667 0 0 0 853.333-128H170.667A170.667 170.667 0 0 0 0 42.66700000000003V725.333A170.667 170.667 0 0 0 170.667 896zM768 640H256v-213.333h42.667c-12.246 71.893 38.784 110.89 85.333 128 11.52-4.139 85.333 0 85.333 0v-384H384V128h256v42.667h-85.333v384c10.069-7.979 45.525-2.134 85.333 0 62.165-19.072 105.387-115.883 85.333-128H768V640z"  horiz-adv-x="1024" />

    
    <glyph glyph-name="video" unicode="&#58974;" d="M170.667 896h682.666A170.667 170.667 0 0 0 1024 725.333v-682.666A170.667 170.667 0 0 0 853.333-128H170.667A170.667 170.667 0 0 0 0 42.66700000000003V725.333A170.667 170.667 0 0 0 170.667 896z m521.386-454.485L451.328 586.752a74.965 74.965 0 0 1-72.875 2.176c-22.826-12.032-37.12-34.773-37.12-59.605v-290.646c0-24.832 14.294-47.701 37.12-59.605 10.752-5.675 22.614-8.405 34.56-8.405 13.312 0 26.624 3.498 38.315 10.624l240.81 145.237a66.987 66.987 0 0 1 33.195 57.557c0 23.254-12.501 44.758-33.28 57.43z"  horiz-adv-x="1024" />

    
    <glyph glyph-name="photo" unicode="&#58975;" d="M170.667 896h682.666A170.667 170.667 0 0 0 1024 725.333v-682.666A170.667 170.667 0 0 0 853.333-128H170.667A170.667 170.667 0 0 0 0 42.66700000000003V725.333A170.667 170.667 0 0 0 170.667 896zM580.65 169.98400000000004l-141.227 204.63c-25.045 42.325-64.555 59.05-90.027 49.407-4.693-12.885-83.754-104.149-218.752-296.448-7.082-10.069 0-42.24 21.547-42.24h703.403c35.84 15.104 47.786 33.366 36.01 54.827a33882.41 33882.41 0 0 0-85.76 156.843c-27.562 28.202-45.482 41.13-79.189 41.13-17.877 0-45.739-12.928-60.501-41.13L580.65 169.98400000000004zM746.667 512a106.667 106.667 0 1 1 0 213.333 106.667 106.667 0 0 1 0-213.333z"  horiz-adv-x="1024" />

    
    <glyph glyph-name="activity2" unicode="&#58976;" d="M554.666756-128h298.665869c50.943978 0 85.333962 31.829986 85.333963 85.332963V298.66681200000005h-383.999832V-128zM85.332963 298.66681200000005v-341.333849c0-53.503976 34.389985-85.332963 85.333962-85.332963h298.665869V298.66681200000005h-383.999831z m767.999662 346.623848c23.16799 22.14399 41.898982 74.324967 41.898982 111.572951 0 37.204984-14.889993 77.055966-41.898982 106.154953C822.271639 896.51155 762.111665 895.99955 740.309675 895.99955c-21.75999 0-70.612969-5.247998-102.697955-38.229983C596.351738 815.403585 554.495756 759.08361 511.999775 688.809641 468.906794 783.403599 426.239813 841.472574 383.999831 863.019564c-63.359972 32.340986-157.140931 50.687978-213.332906 0-36.053984-32.469986-39.125983-86.869962-39.125983-130.175942 0-43.349981 12.373995-56.277975 39.125983-87.551962H85.332963C45.82398 645.28966 0 633.769665 0 601.769679V471.039737C0 415.487761 35.284984 383.999775 85.332963 383.999775h383.999831V558.2076979999999c0 24.532989 12.885994 43.519981 42.666981 43.519981s42.666981-18.986992 42.666981-43.519981V383.999775h383.999832c50.047978 0 85.332963 31.487986 85.332962 87.082962V601.7276790000001c0 32.042986-42.111981 43.562981-85.332962 43.562981h-85.333963zM298.879869 639.999663c-49.620978 22.44299-76.884966 45.73898-81.706964 69.887969-7.295997 36.180984-7.295997 70.954969 30.207986 91.51996s95.445958 3.839998 119.765948-20.564991c16.169993-16.213993 36.052984-63.146972 59.561973-140.842938H298.879869z m425.386813 0H597.332738c28.415988 72.660968 53.247977 119.551947 74.410967 140.714938 31.743986 31.700986 80.639965 37.545984 113.49295 20.735991 32.853986-16.810993 26.325988-50.943978 21.333991-83.242964-3.370999-21.546991-30.805986-47.615979-82.346964-78.207965z"  horiz-adv-x="1024" />

    
    <glyph glyph-name="preview" unicode="&#58977;" d="M0 384.192C0 430.016 229.12 768.3199999999999 512 768.3199999999999c282.752 0 512-341.376 512-384.128-0.064-63.872-229.312-383.872-512-383.872-282.88 0-512 320.256-512 383.872z m209.28-9.344c0-143.616 159.616-196.096 296.32-196.096 136.832 0 298.944 52.48 298.944 196.096S642.432 586.24 505.664 586.24s-296.32-67.84-296.32-211.392z m384 16.64c11.2 0 21.44 2.432 31.168 6.272 0.384-4.096 1.344-8.064 1.344-12.416 0-70.4-54.528-127.36-121.408-127.36-67.008 0-121.28 56.96-121.28 127.36s54.272 127.552 121.28 127.552c3.392 0 6.656-0.832 9.92-1.152a88.512 88.512 0 0 1-5.824-31.04c0-49.28 38.144-89.152 84.864-89.152z"  horiz-adv-x="1024" />

    
    <glyph glyph-name="download" unicode="&#58978;" d="M448 448h128v-192h128l-94.72-128H768c75.136 0 128 54.784 128 128 0 80.128-52.864 128-192 128 5.184 11.328 5.184 44.544 0 64-12.8 99.84-104.96 192-192 192-138.24 0-230.4-92.16-256-192-4.736-25.28-4.736-51.456 0-64-71.68 0-128-56.32-128-128s56.32-128 128-128h162.816L317.888 256H448V448z m155.776-320.256L512 0l-92.416 127.744H320V0h-64C107.776 0 0 109.50400000000002 0 255.55200000000002c0 98.368 114.752 255.552 192 255.552C192 638.0799999999999 317.952 768 512 768c132.48 0 256-129.664 256-256.896 75.84 0 256-94.976 256-255.552 0-124.16-107.776-239.104-256-255.552h-64V127.74400000000003H603.776z"  horiz-adv-x="1024" />

    
    <glyph glyph-name="back" unicode="&#58979;" d="M320.040562 383.8945l-63.985812 63.985813L703.959438 895.786001c-8.253976 1.279996 46.069865-3.135991 55.027838-12.669963 6.589981-7.037979 9.341973-33.272903 9.341973-47.605861 0-4.029988 0-5.886983-0.383999-3.710989L320.040562 383.8945l447.904688-447.904687s-1.790995-42.039877-11.389966-52.149848c-9.660972-10.17297-35.191897-11.836965-52.595846-11.836965L256.05475 319.907688c-0.447999 0-63.986813 63.538814-63.986813 63.986812l63.986813 63.985813z"  horiz-adv-x="1024" />

    
    <glyph glyph-name="open" unicode="&#58980;" d="M512 320l256 256 64-64-256-256-64-64-320 320 64 64 256-256z"  horiz-adv-x="1024" />

    
    <glyph glyph-name="open2" unicode="&#58981;" d="M409.6 768L614.4 896v-1024L409.6 0zM473.6 384c0 2.304 0.922 4.582 2.765 6.336l57.933 55.04a9.792 9.792 0 0 0 13.337 0 8.653 8.653 0 0 0 0-12.672L496.384 384l51.264-48.704a8.653 8.653 0 0 0 0-12.672 9.792 9.792 0 0 0-13.338 0l-57.932 55.04A8.717 8.717 0 0 0 473.6 384z"  horiz-adv-x="1024" />

    
    <glyph glyph-name="retract2" unicode="&#58982;" d="M409.6 768L614.4 896v-1024L409.6 0zM563.2 384a8.717 8.717 0 0 1-2.765 6.336l-57.933 55.04a9.792 9.792 0 0 1-13.337 0 8.653 8.653 0 0 1 0-12.672L540.416 384l-51.264-48.704a8.653 8.653 0 0 1 0-12.672 9.792 9.792 0 0 1 13.338 0l57.932 55.04A8.717 8.717 0 0 1 563.2 384z"  horiz-adv-x="1024" />

    
    <glyph glyph-name="tips" unicode="&#58983;" d="M512-128A512 512 0 1 0 512 896a512 512 0 0 0 0-1024z m0 192a64 64 0 1 1 0 128 64 64 0 0 1 0-128z m-64 640v-384h128V704H448z"  horiz-adv-x="1024" />

    
    <glyph glyph-name="selected" unicode="&#58984;" d="M170.667 896h682.666A170.667 170.667 0 0 0 1024 725.333v-682.666L170.667 896z m728.32-128a38.997 38.997 0 0 1-28.075-12.032l-149.675-155.05-56.149 58.154a38.997 38.997 0 0 1-28.075 12.032 38.997 38.997 0 0 1-28.032-12.032 41.813 41.813 0 0 1-11.648-29.056c0-10.923 4.182-21.333 11.648-29.099l74.795-77.482c10.24-10.539 23.893-10.795 37.461-10.795 13.568 0 27.222 0.256 37.419 10.795l168.363 174.378a41.813 41.813 0 0 1 11.648 29.099 41.813 41.813 0 0 1-11.648 29.013A38.997 38.997 0 0 1 898.987 768z"  horiz-adv-x="1024" />

    
    <glyph glyph-name="bold" unicode="&#58985;" d="M384 2.8799999999999955l5.056-0.704c29.888-1.472 52.032-2.176 66.432-2.176 86.72 0 149.76 15.616 189.248 46.912S704 128.44799999999998 704 197.76c0 62.528-18.56 109.248-55.68 140.032C611.392 368.576 555.712 384 481.6 384a1315.712 1315.712 0 0 1-97.6-2.88v-378.24z m0.64 446.656c3.776-0.512 8.448-0.896 14.016-1.152 5.568-0.256 13.696-0.384 24.384-0.384 74.432 0 129.216 16.448 164.288 49.28C622.464 530.24 640 581.6320000000001 640 651.52c0 61.12-16.256 106.56-48.832 136.128C558.592 817.216 508.608 832 441.216 832c-11.2 0-28.8-1.024-53.056-3.072H384l0.64-379.392zM64 896h445.312C618.432 896 700.48 876.032 755.52 836.032c55.04-40 82.56-99.776 82.56-179.264 0-60.16-17.92-110.4-53.568-150.912-35.776-40.512-88.32-70.208-157.888-89.088 84.992-1.472 151.104-23.808 198.4-67.072C872.384 306.496 896 246.84799999999996 896 170.88c0-96.384-32.128-170.304-96.32-221.76-64.192-51.392-156.608-77.12-277.312-77.12H64v74.496l87.616 8.256 23.872 23.808V792.384L151.68 814.08 64 821.504V896z"  horiz-adv-x="1024" />

    
    <glyph glyph-name="italic" unicode="&#58986;" d="M720 810.688L544-42.68799999999999h176V-128H192v85.312h176L544 810.688H368V896h528v-85.312z"  horiz-adv-x="1024" />

    
    <glyph glyph-name="underscore" unicode="&#58987;" d="M64-64h960v-64H64v64zM64 896h409.024v-64l-88.32-6.4-20.16-18.624v-459.2c0-87.552 18.048-150.08 54.208-187.648 36.224-37.568 95.552-56.32 178.112-56.32 76.096 0 131.136 19.904 165.248 59.84 34.048 39.936 51.136 105.344 51.136 196.288V801.856l-21.568 22.4L700.544 832V896H1024v-64l-86.976-7.68-19.456-22.464v-455.36c0-121.664-29.696-209.92-89.024-264.512C769.152 27.327999999999975 673.408 0 541.184 0c-69.12 0-129.728 9.28-181.888 27.84-52.16 18.56-93.12 45.184-122.752 79.744a244.48 244.48 0 0 0-48.384 93.824c-9.472 35.2-14.272 85.76-14.272 151.488V806.976l-20.16 18.56L64 832V896z"  horiz-adv-x="1024" />

    
    <glyph glyph-name="right" unicode="&#58988;" d="M960 832H64v-128h896V832z m0-256H256v-128h704V576z m0-512H384v-128h576V64z m0 256H64v-128h896V320z"  horiz-adv-x="1024" />

    
    <glyph glyph-name="left" unicode="&#58989;" d="M960 832H64v-128h896V832zM768 576H64v-128h704V576zM640 64H64v-128h576V64z m320 256H64v-128h896V320z"  horiz-adv-x="1024" />

    
    <glyph glyph-name="centre" unicode="&#58990;" d="M960 832H64v-128h896V832zM832 576H128v-128h704V576z m-64-512H192v-128h576V64z m192 256H64v-128h896V320z"  horiz-adv-x="1024" />

    
    <glyph glyph-name="flyinto" unicode="&#58991;" d="M0 384a512 512 0 1 1 1024 0A512 512 0 1 1 0 384zM0 896h512v-85.333H0z m0-938.667h512V-128H0zM0 128h170.667v-85.333H0z m0 597.333h170.667V640H0zM1024 384c0-283.093-228.907-512-512-512S0 100.90700000000004 0 384 228.907 896 512 896s512-228.907 512-512z m-938.667 0c0-234.667 192-426.667 426.667-426.667s426.667 192 426.667 426.667S746.667 810.667 512 810.667 85.333 618.6669999999999 85.333 384z"  horiz-adv-x="1024" />

    
    <glyph glyph-name="zoom" unicode="&#58992;" d="M0 384a512 512 0 1 1 1024 0A512 512 0 1 1 0 384zM1024 384c0-283.093-228.907-512-512-512S0 100.90700000000004 0 384 228.907 896 512 896s512-228.907 512-512z m-938.667 0c0-234.667 192-426.667 426.667-426.667s426.667 192 426.667 426.667S746.667 810.667 512 810.667 85.333 618.6669999999999 85.333 384zM384 608.9390000000001V640H256v-128h30.848L384 608.9390000000001zM287.061 256H256v-128h128v30.848L287.061 256zM640 640v-31.061L737.152 512H768V640H640z m0-481.152V128h128V256h-31.061L640 158.84799999999996zM512 469.333c-47.061 0-85.333-38.272-85.333-85.333 0-47.019 38.272-85.333 85.333-85.333s85.333 38.272 85.333 85.333-38.272 85.333-85.333 85.333z"  horiz-adv-x="1024" />

    
    <glyph glyph-name="not" unicode="&#58993;" d="M0 384a512 512 0 1 1 1024 0A512 512 0 1 1 0 384zM771.115 722.39A424.064 424.064 0 0 1 512 810.6659999999999c-234.667 0-426.667-192-426.667-426.667 0-97.28 32.982-187.136 88.278-259.115l597.504 597.462z m62.208-58.454L232.107 62.67700000000002A424.661 424.661 0 0 1 512-42.66700000000003c234.667 0 426.667 192 426.667 426.667a424.661 424.661 0 0 1-105.344 279.893zM1024 384c0-283.093-228.907-512-512-512S0 100.90700000000004 0 384 228.907 896 512 896s512-228.907 512-512z"  horiz-adv-x="1024" />

    
    <glyph glyph-name="roll" unicode="&#58994;" d="M511.999725-128c282.751848 0 511.999725 229.247877 511.999725 511.999725 0 157.183916-70.826962 297.81284-182.357902 391.76479A509.951726 509.951726 0 0 1 511.999725 895.99945C229.247877 895.99945 0 666.751573 0 383.999725s229.247877-511.999725 511.999725-511.999725zM1023.99945 383.999725c0-283.092848-228.906877-511.999725-511.999725-511.999725S0 100.90687700000001 0 383.999725 228.906877 895.99945 511.999725 895.99945s511.999725-228.906877 511.999725-511.999725z m-938.666496 0c0-234.666874 191.999897-426.666771 426.666771-426.666771s426.665771 191.999897 426.665771 426.666771S746.665599 810.665496 511.999725 810.665496 85.332954 618.6655989999999 85.332954 383.999725zM810.665565 383.999725c0-165.119911-133.545928-298.66684-298.66584-298.66684S213.332885 218.879814 213.332885 383.999725 346.879814 682.665565 511.999725 682.665565 810.665565 549.119636 810.665565 383.999725z m-511.999725 0c0-117.332937 95.999948-213.332885 213.333885-213.332885s213.332885 95.999948 213.332885 213.332885-95.999948 213.332885-213.332885 213.332885-213.332885-95.999948-213.332885-213.332885z"  horiz-adv-x="1024" />

    
    <glyph glyph-name="flipping" unicode="&#58995;" d="M0 384a512 512 0 1 1 1024 0A512 512 0 1 1 0 384zM1024 384c0-283.093-228.907-512-512-512S0 100.90700000000004 0 384 228.907 896 512 896s512-228.907 512-512z m-938.667 0c0-234.667 192-426.667 426.667-426.667s426.667 192 426.667 426.667S746.667 810.667 512 810.667 85.333 618.6669999999999 85.333 384zM732.672 426.667V504.66L853.333 384 732.672 263.33900000000006v77.994H291.328v-77.994L170.667 384l120.661 120.661v-77.994h441.344z"  horiz-adv-x="1024" />

    
    <glyph glyph-name="flashes" unicode="&#58996;" d="M512.072725-128c282.751848 0 511.999725 229.247877 511.999725 511.999725 0 157.183916-70.826962 297.81284-182.356902 391.76479A509.951726 509.951726 0 0 1 512.072725 895.99945c-282.751848 0-511.999725-229.247877-511.999725-511.999725s229.247877-511.999725 511.999725-511.999725zM1.949999 339.62574900000004h85.759954a422.484773 422.484773 0 0 1 41.002978-142.377924L54.259971 154.23984800000005A509.269726 509.269726 0 0 0 1.949999 339.583749z m-0.255 3.413998a510.804726 510.804726 0 0 0 47.487975 260.26586l74.53796-43.092977A422.313773 422.313773 0 0 1 87.369953 424.959703H1.694999v-81.919956z m817.961561-368.596802l-43.391977 75.13596a432.212768 432.212768 0 0 1 82.644956 86.655953l74.75196-43.135977a513.876724 513.876724 0 0 0-114.004939-118.655936z m-15.658992-11.306994a509.311726 509.311726 0 0 0-249.257866-89.429952v85.759954a422.612773 422.612773 0 0 1 149.63192 43.946976l42.367977-73.34396 57.257969 33.066982z m172.117908 203.946891l-74.58196 43.092976a422.271773 422.271773 0 0 1 34.901981 129.407931h85.759954a509.353726 509.353726 0 0 0-46.079975-172.458908zM327.454824-0.34106899999994766a422.441773 422.441773 0 0 1 141.951924-40.191978v-85.759954a511.017726 511.017726 0 0 0-370.602801 207.699889l75.00796 43.307976a431.057768 431.057768 0 0 1 80.895956-80.426957l-41.300978-71.594961 73.897961-42.665977 40.149978 69.545962zM814.152563 797.652503a513.791724 513.791724 0 0 0 125.183932-131.11493l-74.623959-43.092977a432.127768 432.127768 0 0 1-93.86695 99.199947l43.306977 75.00796z m-72.874961 44.458976l-43.007977-74.53896a422.484773 422.484773 0 0 1-143.529923 40.959978V894.292451C621.384666 888.745454 684.359632 870.569464 741.277602 842.111479zM980.339473 591.6576130000001c22.868988-51.625972 37.46098-107.775942 42.111978-166.73991h-85.674954a422.185773 422.185773 0 0 1-31.189983 123.561934l74.752959 43.177976zM217.032883 802.6875l43.178977-74.83796a432.212768 432.212768 0 0 1-93.43995-93.908949l-74.709959 43.178977A513.833724 513.833724 0 0 0 217.076883 802.6875z m73.557961 43.177977A509.353726 509.353726 0 0 0 469.406748 894.292451v-85.759954a422.356773 422.356773 0 0 1-135.765927-37.20498l-43.007977 74.53796z"  horiz-adv-x="1024" />

    
    <glyph glyph-name="m" unicode="&#58997;" d="M305.485 0h413.03c43.162 0 75.085 35.072 75.085 57.6v96H230.4v-96c0-29.517 33.1-57.6 75.085-57.6zM460.8 76.79999999999995a51.2 51.2 0 1 1 102.4 0 51.2 51.2 0 1 1-102.4 0zM305.485 768h413.03c41.293 0 75.085-28.365 75.085-63.027V153.60000000000002H230.4V704.973c0 34.662 33.792 63.027 75.085 63.027z"  horiz-adv-x="1024" />

    
    <glyph glyph-name="pc" unicode="&#58998;" d="M163.84 793.6h696.32c47.872 0 87.04-39.22 87.04-87.142V332.79999999999995H76.8V706.458a87.347 87.347 0 0 0 87.04 87.142zM843.597 153.60000000000002H538.112l-0.512-128h76.8c13.568 0 25.6-8.755 25.6-25.6-0.256-2.048-0.256-25.6-25.6-25.6H409.6c-15.104 0-25.293 10.854-25.6 25.6 0.307 15.232 14.08 25.6 25.6 25.6h76.8v128H182.272c-56.576 0-105.472 40.934-105.472 86.835V332.79999999999995h870.4v-92.365c0-45.9-46.9-83.456-103.603-86.835z"  horiz-adv-x="1024" />

    
    <glyph glyph-name="upload" unicode="&#58999;" d="M448 896h128v-1024H448zM1024 448v-128H0V448z"  horiz-adv-x="1024" />

    


  </font>
</defs>
</svg>
